<?xml version="1.0" encoding="UTF-8" standalone="no"?>
<!-- Created with Inkscape (http://www.inkscape.org/) -->

<svg
   width="512"
   height="512"
   viewBox="0 0 512 512"
   version="1.1"
   id="svg1"
   xml:space="preserve"
   inkscape:version="1.3.2 (091e20e, 2023-11-25, custom)"
   sodipodi:docname="ele_main-v2.svg"
   xmlns:inkscape="http://www.inkscape.org/namespaces/inkscape"
   xmlns:sodipodi="http://sodipodi.sourceforge.net/DTD/sodipodi-0.dtd"
   xmlns:xlink="http://www.w3.org/1999/xlink"
   xmlns="http://www.w3.org/2000/svg"
   xmlns:svg="http://www.w3.org/2000/svg"><sodipodi:namedview
     id="namedview1"
     pagecolor="#505050"
     bordercolor="#ffffff"
     borderopacity="1"
     inkscape:showpageshadow="false"
     inkscape:pageopacity="0"
     inkscape:pagecheckerboard="true"
     inkscape:deskcolor="#505050"
     inkscape:document-units="px"
     showgrid="false"
     showguides="true"
     showborder="true"
     borderlayer="true"
     labelstyle="default"
     inkscape:clip-to-page="false"
     inkscape:zoom="1"
     inkscape:cx="-18.5"
     inkscape:cy="319"
     inkscape:window-width="2097"
     inkscape:window-height="1546"
     inkscape:window-x="2213"
     inkscape:window-y="429"
     inkscape:window-maximized="0"
     inkscape:current-layer="layer2"><inkscape:grid
       id="grid1"
       units="px"
       originx="0"
       originy="0"
       spacingx="1"
       spacingy="1"
       empcolor="#0099e5"
       empopacity="0.30196078"
       color="#0099e5"
       opacity="0.14901961"
       empspacing="4"
       dotted="false"
       gridanglex="30"
       gridanglez="30"
       visible="false"
       snapvisiblegridlinesonly="true"
       enabled="true" /></sodipodi:namedview><defs
     id="defs1"><linearGradient
       id="linearGradient40"
       inkscape:collect="always"><stop
         style="stop-color:#14b6f9;stop-opacity:1;"
         offset="0"
         id="stop41" /><stop
         style="stop-color:#0fa5f6;stop-opacity:1;"
         offset="0.25247523"
         id="stop129" /><stop
         style="stop-color:#106bf2;stop-opacity:1;"
         offset="0.69059408"
         id="stop130" /><stop
         style="stop-color:#125bed;stop-opacity:1;"
         offset="1"
         id="stop42" /></linearGradient><linearGradient
       inkscape:collect="always"
       xlink:href="#linearGradient40"
       id="linearGradient42"
       x1="256"
       y1="0"
       x2="256"
       y2="512"
       gradientUnits="userSpaceOnUse" /><filter
       style="color-interpolation-filters:sRGB;"
       inkscape:label="Drop Shadow"
       id="filter127"
       x="-0.12352941"
       y="-0.11830986"
       width="1.2470588"
       height="1.2823944"><feFlood
         result="flood"
         in="SourceGraphic"
         flood-opacity="0.250980"
         flood-color="rgb(0,0,0)"
         id="feFlood126" /><feGaussianBlur
         result="blur"
         in="SourceGraphic"
         stdDeviation="14.000000"
         id="feGaussianBlur126" /><feOffset
         result="offset"
         in="blur"
         dx="0.000000"
         dy="13.000000"
         id="feOffset126" /><feComposite
         result="comp1"
         operator="in"
         in="flood"
         in2="offset"
         id="feComposite126" /><feComposite
         result="comp2"
         operator="over"
         in="SourceGraphic"
         in2="comp1"
         id="feComposite127" /></filter></defs><g
     inkscape:groupmode="layer"
     id="layer2"
     inkscape:label="logo-v2"
     style="display:inline"><path
       id="path1"
       style="display:inline;fill:url(#linearGradient42);stroke-width:0.952441"
       inkscape:label="circle"
       d="M 512,256 A 256,256 0 0 1 256,512 256,256 0 0 1 0,256 256,256 0 0 1 256,0 256,256 0 0 1 512,256 Z" /><path
       d="m 212,116 c -50.96657,0 -92,41.03343 -92,92 v 44 c 0,35.95235 20.43219,66.94046 50.35156,82.08984 C 172.06539,368.97927 144,400 144,400 c 0,0 65.17196,-16.37821 83.33008,-52.07617 9.21713,0.71911 18.90637,1.09073 28.66992,1.09961 9.76355,-0.009 19.45279,-0.3805 28.66992,-1.09961 C 302.82826,383.62222 368,400 368,400 368,400 339.93459,368.97969 341.64844,334.08984 371.56781,318.94046 392,287.95235 392,252 v -44 c 0,-50.96657 -41.03343,-92 -92,-92 z m -26.5,86 A 25.5,25.5 0 0 1 211,227.5 25.5,25.5 0 0 1 185.5,253 25.5,25.5 0 0 1 160,227.5 25.5,25.5 0 0 1 185.5,202 Z m 141,0 A 25.5,25.5 0 0 1 352,227.5 25.5,25.5 0 0 1 326.5,253 25.5,25.5 0 0 1 301,227.5 25.5,25.5 0 0 1 326.5,202 Z m -94.2168,58.48242 c 0.0796,-0.003 0.15938,-0.003 0.23828,0 0.98224,0.0423 1.89985,0.58257 2.47852,1.51758 2.57763,4.16492 6.8405,8.6982 21,8.7168 14.15956,-0.0186 18.42236,-4.55186 21,-8.7168 1.32267,-2.13717 4.41914,-2.207 6,1 0.46425,0.9418 0.71011,1.88241 0.76367,2.81445 -0.0312,1.07703 -0.22014,2.14995 -0.56445,3.20508 C 280.54783,277.15632 269.18337,282.998 256,283 c -0.44988,-0.012 -0.89924,-0.0308 -1.34766,-0.0566 -0.14199,-0.005 -0.28393,-0.0106 -0.42578,-0.0176 -12.14078,-0.49675 -22.35549,-5.9144 -25.20312,-13.36719 -0.48257,-1.25665 -0.74259,-2.54319 -0.77539,-3.83593 0.064,-0.90207 0.30292,-1.81173 0.75195,-2.72266 0.83365,-1.69119 2.08893,-2.47138 3.2832,-2.51758 z"
       style="display:inline;fill:#ffffff;fill-opacity:1;stroke-width:1.08557;filter:url(#filter127)"
       id="path11"
       inkscape:label="body" /></g></svg>
